#!OML:ASF F:\VICON\USERDATA\INSTALL\rory3\rory3.ASF
:FULLY-SPECIFIED
:DEGREES
1477
root 1.69376 17.4369 2.73432 188.485 -119.079 -183.546
lowerback 4.49068 2.90449 -3.86348
upperback 1.45591 3.68428 0.221719
thorax -1.27336 1.83541 2.17878
lowerneck -16.0672 -8.40485 -16.0384
upperneck -24.5835 -8.09606 16.0657
head -3.43226 -3.72605 7.69878
rclavicle -3.95085e-014 5.1684e-015
rhumerus -50.0842 -25.0434 -55.675
rradius 20.2219
rwrist 12.2272
rhand -23.3556 -2.15202
rfingers 7.12502
rthumb 3.09965 -32.1092
lclavicle -3.95085e-014 5.1684e-015
lhumerus -51.3826 4.50712 69.672
lradius 72.7913
lwrist 7.28513
lhand -20.9809 20.5237
lfingers 7.12502
lthumb 5.39283 50.4351
rfemur -4.9513 8.56196 13.1601
rtibia 37.4484
rfoot -15.8633 6.92748
rtoes -16.7882
lfemur -24.5198 -12.5478 -4.94559
ltibia 27.2523
lfoot -8.47035 -16.2764
ltoes -13.9175
1478
root 1.71764 17.4216 2.62407 188.225 -119.398 -183.24
lowerback 4.62109 2.83024 -3.84668
upperback 1.4177 3.5806 0.258308
thorax -1.37979 1.78618 2.20583
lowerneck -15.8724 -8.29362 -15.9564
upperneck -24.7723 -7.99311 15.9449
head -3.54671 -3.68249 7.67069
rclavicle 6.29153e-014 -1.59028e-014
rhumerus -49.9476 -24.3572 -56.0633
rradius 20.4033
rwrist 11.3174
rhand -23.5489 -2.293
rfingers 7.12502
rthumb 2.91298 -32.2529
lclavicle 6.29153e-014 -1.59028e-014
lhumerus -50.3516 4.2975 69.7621
lradius 72.61
lwrist 7.08663
lhand -20.9519 20.304
lfingers 7.12502
lthumb 5.42077 50.2147
rfemur -4.78861 8.65792 13.4707
rtibia 37.1402
rfoot -16.7843 6.92831
rtoes -16.2719
lfemur -24.7609 -12.6435 -4.69276
ltibia 26.9027
lfoot -8.09778 -16.2914
ltoes -14.5312
1479
root 1.7433 17.4054 2.51139 187.921 -119.806 -182.875
lowerback 4.79692 2.69785 -3.8217
upperback 1.3713 3.39727 0.263535
thorax -1.51215 1.69765 2.1996
lowerneck -15.8003 -8.14499 -15.6981
upperneck -24.8765 -7.8645 15.6951
head -3.63829 -3.63213 7.56306
rclavicle 2.41523e-014 -1.03368e-014
rhumerus -49.736 -23.787 -56.4459
rradius 20.476
rwrist 10.8908
rhand -23.6521 -2.07892
rfingers 7.12502
rthumb 2.81333 -32.0401
lclavicle 2.41523e-014 -1.03368e-014
lhumerus -49.1715 4.11138 69.7878
lradius 72.2632
lwrist 6.66081
lhand -20.5398 20.566
lfingers 7.12502
lthumb 5.81864 50.4661
rfemur -4.64628 8.62801 13.7696
rtibia 36.8335
rfoot -17.823 6.78083
rtoes -15.7477
lfemur -25.0157 -12.6947 -4.52667
ltibia 26.476
lfoot -7.94911 -16.3651
ltoes -16.7101
1480
root 1.77252 17.3871 2.40596 186.885 -120.128 -181.644
lowerback 4.85833 2.55198 -4.07179
upperback 1.38679 3.18483 0.103697
thorax -1.52039 1.59152 2.18708
lowerneck -15.8957 -7.99037 -15.5519
upperneck -24.8448 -7.68384 15.5227
head -3.66104 -3.54515 7.49031
rclavicle 2.09221e-014 -1.43125e-014
rhumerus -49.3904 -23.2766 -56.8935
rradius 20.597
rwrist 10.6755
rhand -23.7964 -1.81745
rfingers 7.12502
rthumb 2.67403 -31.7804
lclavicle 2.09221e-014 -1.43125e-014
lhumerus -47.8891 4.02381 69.8607
lradius 71.9207
lwrist 6.4737
lhand -20.2934 20.8938
lfingers 7.12502
lthumb 6.05656 50.7872
rfemur -4.54747 8.40465 13.5155
rtibia 36.5281
rfoot -18.8802 6.56685
rtoes -15.6199
lfemur -25.2408 -13.054 -4.81567
ltibia 26.0059
lfoot -7.75182 -16.1215
ltoes -18.4139
1481
root 1.80237 17.3688 2.30142 185.683 -120.235 -180.239
lowerback 4.88242 2.50924 -4.40717
upperback 1.46773 3.10575 -0.139974
thorax -1.44891 1.54884 2.13024
lowerneck -16.0289 -7.89281 -15.5184
upperneck -24.8929 -7.52819 15.5888
head -3.67609 -3.47072 7.51661
rclavicle 4.85532e-014 -1.45113e-014
rhumerus -48.9569 -22.9667 -57.4702
rradius 20.7706
rwrist 10.3556
rhand -24.2426 -1.85827
rfingers 7.12502
rthumb 2.24304 -31.8262
lclavicle 4.85532e-014 -1.45113e-014
lhumerus -46.3721 3.79944 70.012
lradius 71.5529
lwrist 6.5501
lhand -20.5558 20.9479
lfingers 7.12502
lthumb 5.80326 50.8485
rfemur -4.46581 8.26909 13.125
rtibia 36.1143
rfoot -19.9113 6.26553
rtoes -15.0734
lfemur -25.4131 -12.8561 -5.30828
ltibia 25.6357
lfoot -7.35746 -16.2096
ltoes -19.0281
1482
root 1.82809 17.3558 2.18814 185.176 -120.35 -179.65
lowerback 4.90552 2.55181 -4.52417
upperback 1.56586 3.15483 -0.224379
thorax -1.36552 1.56944 2.10696
lowerneck -15.9331 -7.84101 -15.4585
upperneck -25.2144 -7.46416 15.6422
head -3.79754 -3.45043 7.55027
rclavicle 1.4228e-013 -2.08724e-014
rhumerus -48.555 -22.8742 -57.9259
rradius 20.9218
rwrist 10.2293
rhand -24.8603 -1.48498
rfingers 7.12502
rthumb 1.6465 -31.4584
lclavicle 1.4228e-013 -2.08724e-014
lhumerus -44.6733 3.29829 70.3354
lradius 71.0819
lwrist 6.62386
lhand -20.8546 21.1027
lfingers 7.12502
lthumb 5.51472 51.0109
rfemur -4.37258 8.2539 13.2643
rtibia 35.6047
rfoot -20.9025 5.67369
rtoes -14.0937
lfemur -25.5813 -12.1488 -5.41749
ltibia 25.2928
lfoot -6.74349 -16.7984
ltoes -19.185
1483
root 1.85624 17.3453 2.06685 186.795 -120.945 -181.612
lowerback 5.1242 2.40661 -3.41621
upperback 1.62057 3.01601 0.204944
thorax -1.38876 1.49981 1.93181
lowerneck -15.8313 -7.76721 -15.5645
upperneck -25.4995 -7.36637 15.6022
head -3.91723 -3.39579 7.58236
rclavicle -8.51295e-014 2.68359e-014
rhumerus -47.9539 -22.4853 -58.3385
rradius 20.9332
rwrist 10.1659
rhand -25.1677 -1.0514
rfingers 7.12502
rthumb 1.34962 -31.0269
lclavicle -8.51295e-014 2.68359e-014
lhumerus -43.2111 3.13404 70.8182
lradius 70.6728
lwrist 6.37039
lhand -20.9986 21.2141
lfingers 7.12502
lthumb 5.37566 51.1259
rfemur -4.0763 7.96385 14.984
rtibia 34.9904
rfoot -21.9143 4.66641
rtoes -13.5094
lfemur -25.8423 -11.9533 -3.97537
ltibia 24.9759
lfoot -6.11351 -17.1883
ltoes -19.1844
1484
root 1.88496 17.3392 1.94329 187.794 -121.363 -182.751
lowerback 5.29229 2.24116 -2.7508
upperback 1.59363 2.83017 0.524652
thorax -1.48374 1.40843 1.89397
lowerneck -15.6897 -7.62312 -15.6508
upperneck -25.7748 -7.19114 15.5217
head -4.05504 -3.30446 7.60393
rclavicle 4.4329e-014 -4.37326e-015
rhumerus -47.1341 -21.6914 -59.0679
rradius 20.8395
rwrist 10.0262
rhand -25.3969 -1.4754
rfingers 7.12502
rthumb 1.1282 -31.4522
lclavicle 4.4329e-014 -4.37326e-015
lhumerus -41.9237 3.17405 71.2004
lradius 70.2728
lwrist 5.78321
lhand -20.583 21.217
lfingers 7.12502
lthumb 5.77693 51.1182
rfemur -3.97226 7.64475 16.2214
rtibia 34.3721
rfoot -22.7586 3.63199
rtoes -12.5241
lfemur -26.1563 -12.4751 -2.78375
ltibia 24.6255
lfoot -5.77502 -16.613
ltoes -20.2142
1485
root 1.91736 17.3347 1.8219 188.031 -121.53 -182.939
lowerback 5.3789 2.18885 -2.54577
upperback 1.63656 2.76942 0.572868
thorax -1.47742 1.37698 1.83082
lowerneck -15.8185 -7.50205 -15.4998
upperneck -25.9826 -7.03189 15.4953
head -4.13399 -3.23687 7.58898
rclavicle -3.2228e-014 -6.06293e-015
rhumerus -46.2235 -20.9594 -60.1866
rradius 20.8283
rwrist 9.83261
rhand -25.6381 -2.14141
rfingers 7.12502
rthumb 0.895302 -32.1193
lclavicle -3.2228e-014 -6.06293e-015
lhumerus -40.3012 2.94284 71.4354
lradius 69.8095
lwrist 5.3538
lhand -19.9228 21.1727
lfingers 7.12502
lthumb 6.41431 51.0556
rfemur -4.03894 7.36968 16.846
rtibia 33.8021
rfoot -23.5064 2.58671
rtoes -12.602
lfemur -26.4329 -13.9785 -1.85134
ltibia 24.2122
lfoot -5.46989 -14.8628
ltoes -20.6425
1486
root 1.95258 17.3277 1.70075 188.036 -121.675 -182.893
lowerback 5.4972 2.20981 -2.46176
upperback 1.73381 2.79824 0.595588
thorax -1.44197 1.38913 1.80287
lowerneck -16.0342 -7.47165 -15.467
upperneck -26.1274 -6.95863 15.5321
head -4.16003 -3.20083 7.60306
rclavicle 6.88292e-014 -4.87022e-015
rhumerus -45.3465 -20.4508 -61.0967
rradius 20.844
rwrist 9.72491
rhand -25.7246 -2.29681
rfingers 7.12502
rthumb 0.811692 -32.275
lclavicle 6.88292e-014 -4.87022e-015
lhumerus -38.5565 2.62154 71.8397
lradius 69.4024
lwrist 5.06501
lhand -19.8124 21.3225
lfingers 7.12502
lthumb 6.5209 51.2021
rfemur -4.15839 7.1132 17.3097
rtibia 33.4283
rfoot -24.2972 1.75425
rtoes -11.804
lfemur -26.5783 -14.7799 -1.24711
ltibia 23.5752
lfoot -4.90753 -13.7636
ltoes -20.4431
1487
root 1.99122 17.3161 1.58322 187.923 -121.945 -182.809
lowerback 5.75227 2.17554 -2.29694
upperback 1.79269 2.75617 0.70083
thorax -1.51887 1.36753 1.81343
lowerneck -16.11 -7.47441 -15.7124
upperneck -26.2476 -6.92271 15.5152
head -4.18944 -3.15896 7.64742
rclavicle -1.34863e-014 -2.28602e-015
rhumerus -44.5589 -20.4483 -61.3442
rradius 20.6865
rwrist 10.5009
rhand -25.5809 -1.92175
rfingers 7.12502
rthumb 0.950543 -31.8994
lclavicle -1.34863e-014 -2.28602e-015
lhumerus -37.0053 2.44938 72.4334
lradius 69.039
lwrist 4.51547
lhand -19.6681 21.662
lfingers 7.12502
lthumb 6.66022 51.5373
rfemur -4.22808 6.64193 17.7297
rtibia 33.1847
rfoot -25.2023 1.11227
rtoes -10.1092
lfemur -26.6662 -15.1853 -0.853326
ltibia 22.888
lfoot -4.3453 -13.0104
ltoes -21.1262
1488
root 2.03446 17.3097 1.46893 187.34 -122.24 -182.147
lowerback 6.02188 2.1479 -2.27832
upperback 1.88933 2.70978 0.557251
thorax -1.55942 1.3429 1.65103
lowerneck -16.3261 -7.43466 -15.5322
upperneck -26.3912 -6.87295 15.4218
head -4.22656 -3.14105 7.59099
rclavicle 4.52111e-014 -1.26228e-014
rhumerus -43.8424 -21.6446 -61.1867
rradius 20.2658
rwrist 12.4306
rhand -25.3578 -1.05441
rfingers 7.12502
rthumb 1.16604 -31.031
lclavicle 4.52111e-014 -1.26228e-014
lhumerus -35.3544 2.139 72.8596
lradius 68.6968
lwrist 3.56089
lhand -19.3954 21.684
lfingers 7.12502
lthumb 6.92345 51.5508
rfemur -4.40896 5.84959 17.7344
rtibia 33.0139
rfoot -25.9366 0.51039
rtoes -9.80341
lfemur -26.8377 -15.8701 -0.785751
ltibia 22.2743
lfoot -3.89478 -11.8775
ltoes -22.2964
1489
root 2.0783 17.3078 1.35004 187.113 -122.398 -181.817
lowerback 6.29205 2.22481 -2.14444
upperback 1.98979 2.80727 0.326602
thorax -1.59297 1.3898 1.3236
lowerneck -16.7469 -7.36113 -14.9011
upperneck -26.5305 -6.82141 15.2332
head -4.25414 -3.15286 7.41885
rclavicle 8.09302e-014 -2.48481e-015
rhumerus -43.0545 -22.5358 -61.6902
rradius 20.0173
rwrist 13.7797
rhand -25.403 -0.46702
rfingers 7.12502
rthumb 1.12234 -30.4438
lclavicle 8.09302e-014 -2.48481e-015
lhumerus -33.5827 1.50452 73.1403
lradius 68.4735
lwrist 2.66822
lhand -19.3759 21.7423
lfingers 7.12502
lthumb 6.94229 51.6084
rfemur -4.77151 5.16442 17.8948
rtibia 32.9068
rfoot -26.4275 -0.0760145
rtoes -10.2483
lfemur -27.0478 -16.1401 -0.606353
ltibia 21.7364
lfoot -3.62372 -10.7935
ltoes -23.8019
